# xmcd
#
# Track frame offsets: 
#        150
#        12947
#        31024
#        55589
#        75968
#        97352
#        108512
#        124367
#        145231
#        161908
#        185920
#        206389
#
# Disc length: 2948 seconds
#
# Revision: 0
# Processed by: cddbd v1.5.2PL0 Copyright (c) Steve Scherf et al.
# Submitted via: ExactAudioCopy v1.3
#
DISCID=a20b820c
DTITLE=Damon Fowler - Modern Blues Essentials The Essential Damon Fowl
DTITLE=er
DYEAR=2015
DGENRE=Electric Blues
TTITLE0=Devil Got His Way
TTITLE1=We've Got A Good Thing
TTITLE2=After The Rain
TTITLE3=Lonely Blues
TTITLE4=I Hope It's Gonna Rain
TTITLE5=Some Fun
TTITLE6=28 Degrees
TTITLE7=Sugar Shack
TTITLE8=Tight Rope
TTITLE9=Thought I Had It All
TTITLE10=Old Fools, Bar Stools, And Me
TTITLE11=Spark
EXTD=
EXTT0=
EXTT1=
EXTT2=
EXTT3=
EXTT4=
EXTT5=
EXTT6=
EXTT7=
EXTT8=
EXTT9=
EXTT10=
EXTT11=
PLAYORDER=
